<svg viewBox="0 0 32 32" fill="none" xmlns="http://www.w3.org/2000/svg">
  <rect width="32" height="32" rx="7" fill="#E6F7F7"/>
  <path d="M16 5C11.8 5 9 8.2 9 12c0 2.2.9 4 1.4 5.8.5 1.8.4 5.6 1.8 7.4.9 1.4 1.8 1.9 2.7.5.5-.9.9-3.8 1.1-3.8.2 0 .6 2.9 1.1 3.8.9 1.4 1.8.9 2.7-.5 1.4-1.8 1.3-5.6 1.8-7.4.5-1.8 1.4-3.6 1.4-5.8 0-3.8-2.8-7-7-7z" fill="#2ABFBF" fill-opacity=".25" stroke="#2ABFBF" stroke-width="1.2"/>
  <circle cx="23" cy="9" r="3.5" fill="#E6F7F7" stroke="#2ABFBF" stroke-width="1.2"/>
  <circle cx="23" cy="9" r="1.5" fill="none" stroke="#2ABFBF" stroke-width=".8"/>
  <line x1="25.5" y1="11.5" x2="27.5" y2="13.5" stroke="#2ABFBF" stroke-width="1.2" stroke-linecap="round"/>
</svg>
